<svg id="072ea600-0cdc-4b7b-b69c-311218b76d8b" data-name="圖層 1" xmlns="http://www.w3.org/2000/svg" viewBox="0 0 125.77 167.22"><defs><style>.\33 156994d-973b-40fe-9967-99ddcf2d9502{fill:#fff;}.\36 ad570b3-8887-4c21-9ec8-e56d574e142d{fill:#e5316a;}.\37 3b493ab-29f6-4747-bc8c-1c94a51198bf{fill:#485fa9;}.bedeb2b4-c622-45ab-9952-b609902ce86b{fill:#58539f;}</style></defs><title>logo_n3xt_white</title><path class="3156994d-973b-40fe-9967-99ddcf2d9502" d="M13,151.69v4.84a8.91,8.91,0,0,0-2.23-2.09,4.35,4.35,0,0,0-2.28-.58,4.5,4.5,0,0,0-3.41,1.44,5.05,5.05,0,0,0-1.36,3.61A5.17,5.17,0,0,0,5,162.54,4.42,4.42,0,0,0,8.41,164a4.63,4.63,0,0,0,2.31-.57A9.19,9.19,0,0,0,13,161.27v4.8a9.57,9.57,0,0,1-4.43,1.15,8.48,8.48,0,0,1-6.11-2.36A7.88,7.88,0,0,1,0,159a8,8,0,0,1,2.49-6,8.42,8.42,0,0,1,6.11-2.43A9.14,9.14,0,0,1,13,151.69Z"/><path class="3156994d-973b-40fe-9967-99ddcf2d9502" d="M15.54,158.77A7.83,7.83,0,0,1,18,153a8.18,8.18,0,0,1,6-2.39,8.23,8.23,0,0,1,6,2.41,8.44,8.44,0,0,1,0,11.86,8.35,8.35,0,0,1-6,2.38,8,8,0,0,1-5.94-2.43A8.16,8.16,0,0,1,15.54,158.77Zm3.72.07a5.31,5.31,0,0,0,1.26,3.74A4.44,4.44,0,0,0,23.93,164a4.44,4.44,0,0,0,3.41-1.38,5.91,5.91,0,0,0,0-7.34,4.44,4.44,0,0,0-3.41-1.39,4.4,4.4,0,0,0-3.38,1.39A5.06,5.06,0,0,0,19.26,158.84Z"/><path class="3156994d-973b-40fe-9967-99ddcf2d9502" d="M35.94,151h3.66v1.46a6,6,0,0,1,4.3-1.89,5.43,5.43,0,0,1,4.29,1.73q1.33,1.47,1.33,4.8v9.66H45.85V158a5.77,5.77,0,0,0-.65-3.22,2.61,2.61,0,0,0-2.3-.91,2.81,2.81,0,0,0-2.57,1.2,8.23,8.23,0,0,0-.74,4.12v7.6H35.94Z"/><path id="4ecb3035-c355-4af8-8701-12f248fca91b" data-name="&lt;複合路徑&gt;" class="3156994d-973b-40fe-9967-99ddcf2d9502" d="M0,100.78H8.21v3.27a13.41,13.41,0,0,1,9.67-4.25q6.18,0,9.63,3.89,3,3.31,3,10.8v21.7H22.28V116.41q0-5.23-1.46-7.23t-5.16-2q-4.07,0-5.78,2.69T8.21,119.1v17.08H0Z"/><path id="3ead029a-1c9b-4276-8ba5-cd0e132f2712" data-name="&lt;複合路徑&gt;" class="3156994d-973b-40fe-9967-99ddcf2d9502" d="M37.54,101.17H63.39v35H37.54v-6.45H56.32v-7.83H38.09v-6.45H56.32v-7.85H37.54Z"/><path id="a4ff342c-e9f7-4804-b4c8-b7b1f2138cbf" data-name="&lt;複合路徑&gt;" class="3156994d-973b-40fe-9967-99ddcf2d9502" d="M119.93,110.66v25.52h-7.52V110.66h-4.1v-7h4.1V91.72h7.52v11.93h5.85v7Z"/><polygon class="6ad570b3-8887-4c21-9ec8-e56d574e142d" points="104.43 100.94 94.73 100.94 86.97 111.22 91.78 117.11 104.43 100.94"/><polygon class="6ad570b3-8887-4c21-9ec8-e56d574e142d" points="67 136.19 76.67 136.19 86.97 123.01 82.22 117.11 67 136.19"/><polygon class="73b493ab-29f6-4747-bc8c-1c94a51198bf" points="91.78 117.11 86.97 111.22 79.34 100.94 69.92 100.94 82.22 117.11 86.97 123.01 97.02 136.19 106.44 136.19 91.78 117.11"/><polygon class="bedeb2b4-c622-45ab-9952-b609902ce86b" points="86.93 111.22 82.19 117.11 86.93 123.01 91.75 117.11 86.93 111.22"/><polygon class="6ad570b3-8887-4c21-9ec8-e56d574e142d" points="80.05 0 55.72 39.37 31.38 78.75 80.05 78.75 104.38 39.37 80.05 0"/><polygon class="73b493ab-29f6-4747-bc8c-1c94a51198bf" points="80.05 0 31.38 0 55.72 39.37 80.05 78.75 104.38 39.37 80.05 0"/><polygon class="bedeb2b4-c622-45ab-9952-b609902ce86b" points="79.98 0 55.68 39.42 79.98 78.75 104.25 39.37 79.98 0"/></svg>