<?xml version="1.0" encoding="UTF-8"?>
<svg width="138px" height="55px" viewBox="0 0 138 55" version="1.1" xmlns="http://www.w3.org/2000/svg" xmlns:xlink="http://www.w3.org/1999/xlink">
    <!-- Generator: Sketch 47.1 (45422) - http://www.bohemiancoding.com/sketch -->
    <title>LogoBlack</title>
    <desc>Created with Sketch.</desc>
    <defs>
        <polygon id="path-1" points="11.2096849 11.3636364 0.00316438356 11.3636364 0.00316438356 0.402897727 11.2096849 0.402897727 11.2096849 11.3636364"></polygon>
    </defs>
    <g id="Symbols" stroke="none" stroke-width="1" fill="none" fill-rule="evenodd">
        <g id="LogoBlack">
            <g id="Group-2">
                <g id="Page-1" transform="translate(0.000000, 4.000000)">
                    <polygon id="Fill-1" fill="#E5316A" points="24.6669964 0 12.3330036 20.0009915 0 40 24.6669964 40 37 20.0009915"></polygon>
                    <polygon id="Fill-2" fill="#485FA9" points="0 0 12.3330036 20.0009915 24.6669964 40 37 20.0009915 24.6669964 0"></polygon>
                    <polygon id="Fill-3" fill="#58539F" points="24.5070315 0 12 20.0228039 24.508036 40 37 20.0009915"></polygon>
                </g>
                <g id="Group" transform="translate(54.000000, 0.000000)">
                    <g id="Group-6" transform="translate(10.356164, 38.527841)">
                        <mask id="mask-2" fill="white">
                            <use xlink:href="#path-1"></use>
                        </mask>
                        <g id="Clip-5"></g>
                        <path d="M2.4840411,5.84607955 C2.4840411,6.88301136 2.76480822,7.70346591 3.32519178,8.30630682 C3.90110959,8.91710227 4.65941096,9.22278409 5.60182192,9.22278409 C6.55056164,9.22278409 7.30886301,8.92051136 7.87730137,8.31710227 C8.44516438,7.71369318 8.72880822,6.90801136 8.72880822,5.89948864 C8.72880822,4.89096591 8.44516438,4.08528409 7.87730137,3.48130682 C7.3019589,2.87107955 6.54365753,2.56539773 5.60182192,2.56539773 C4.67379452,2.56539773 3.92239726,2.87107955 3.34705479,3.48130682 C2.77171233,4.09267045 2.4840411,4.88073864 2.4840411,5.84607955 M0.00316438356,5.80289773 C0.00316438356,4.30573864 0.546863014,3.03017045 1.63253425,1.97960227 C2.71820548,0.929034091 4.04091781,0.402897727 5.60182192,0.402897727 C7.16905479,0.402897727 8.49924658,0.932443182 9.59182192,1.98982955 C10.670589,3.04835227 11.2096849,4.34778409 11.2096849,5.88869318 C11.2096849,7.44380682 10.6665616,8.74721591 9.58146575,9.79778409 C8.48831507,10.8415341 7.14719178,11.3636932 5.55809589,11.3636932 C3.98280822,11.3636932 2.66412329,10.8307386 1.59973973,9.76596591 C0.535356164,8.71539773 0.00316438356,7.39380682 0.00316438356,5.80289773" id="Fill-4" fill="#1A264A" mask="url(#mask-2)"></path>
                    </g>
                    <path d="M23.9652575,39.2186364 L26.4029836,39.2186364 L26.4029836,40.1771591 C27.2510384,39.3464773 28.2078329,38.9305682 29.2716411,38.9305682 C30.4942438,38.9305682 31.447011,39.31125 32.1299425,40.0709091 C32.7196685,40.7169318 33.0148192,41.7714773 33.0148192,43.2345455 L33.0148192,49.5930682 L30.5770932,49.5930682 L30.5770932,43.79875 C30.5770932,42.7765909 30.4326822,42.0697727 30.1455863,41.6794318 C29.8648192,41.2811364 29.3550658,41.0828409 28.6140247,41.0828409 C27.8085452,41.0828409 27.2372301,41.3453409 26.8995041,41.8703409 C26.5681068,42.3890909 26.4029836,43.2947727 26.4029836,44.5868182 L26.4029836,49.5930682 L23.9652575,49.5930682 L23.9652575,39.2186364 Z" id="Fill-7" fill="#1A264A"></path>
                    <path d="M5.75342467e-05,6.14090909 L5.47731781,6.14090909 L5.47731781,8.29545455 C7.38457808,6.42840909 9.53290685,5.49431818 11.9251808,5.49431818 C14.6712904,5.49431818 16.8132904,6.34886364 18.3483041,8.05568182 C19.6733178,9.50852273 20.335537,11.8778409 20.335537,15.1653409 L20.335537,29.4551136 L14.8582767,29.4551136 L14.8582767,16.4340909 C14.8582767,14.1357955 14.5349342,12.5482955 13.887674,11.6698864 C13.2582493,10.7767045 12.1104411,10.3301136 10.4465507,10.3301136 C8.63652329,10.3301136 7.35178356,10.9204545 6.59233151,12.1011364 C5.84956438,13.2664773 5.47731781,15.3011364 5.47731781,18.2051136 L5.47731781,29.4551136 L5.75342467e-05,29.4551136 L5.75342467e-05,6.14090909 Z" id="Fill-9" fill="#1A264A"></path>
                    <polygon id="Fill-11" fill="#1A264A" points="25.0342438 6.39534091 42.2709288 6.39534091 42.2709288 29.455 25.0342438 29.455 25.0342438 25.2106818 37.5577233 25.2106818 37.5577233 20.0561364 25.3984356 20.0561364 25.3984356 15.8118182 37.5577233 15.8118182 37.5577233 10.6396591 25.0342438 10.6396591"></polygon>
                    <polygon id="Fill-13" fill="#1A264A" points="79.9712795 12.648125 79.9712795 29.4555114 74.9588959 29.4555114 74.9588959 12.648125 72.2219918 12.648125 72.2219918 8.02823864 74.9588959 8.02823864 74.9588959 0.174829545 79.9712795 0.174829545 79.9712795 8.02823864 83.8692247 8.02823864 83.8692247 12.648125"></polygon>
                    <polygon id="Fill-15" fill="#E5316A" points="69.6387041 6.24301136 63.1701288 6.24301136 57.9914712 13.0111932 61.2018822 16.8964205"></polygon>
                    <polygon id="Fill-17" fill="#E5316A" points="44.6804055 29.4555114 51.1253918 29.4555114 57.9915288 20.7805114 54.8277205 16.8964205"></polygon>
                    <polygon id="Fill-19" fill="#485FA9" points="61.2018822 16.8961364 57.9914712 13.0109091 52.9065945 6.24272727 46.6255808 6.24272727 54.827663 16.8961364 57.9914712 20.7807955 64.6936356 29.4552273 70.9746493 29.4552273"></polygon>
                    <polygon id="Fill-21" fill="#58539F" points="57.9678247 13.01125 54.8040164 16.8964773 57.9678247 20.7805682 61.1782356 16.8964773"></polygon>
                </g>
                <text id="C" font-family="SourceSansPro-Bold, Source Sans Pro" font-size="17" font-weight="bold" fill="#1A264A">
                    <tspan x="52" y="50">C</tspan>
                </text>
            </g>
        </g>
    </g>
</svg>