<?xml version="1.0" encoding="UTF-8"?>
<svg width="138px" height="55px" viewBox="0 0 138 55" version="1.1" xmlns="http://www.w3.org/2000/svg" xmlns:xlink="http://www.w3.org/1999/xlink">
    <!-- Generator: Sketch 47.1 (45422) - http://www.bohemiancoding.com/sketch -->
    <title>Logo</title>
    <desc>Created with Sketch.</desc>
    <defs>
        <polygon id="path-1" points="10.8484898 27.5977169 10.8484898 0.652418182 0.217279592 0.652418182 0.217279592 27.5977169 10.8484898 27.5977169"></polygon>
        <polygon id="path-3" points="0.000281632653 54 49.8063122 54 49.8063122 0.483194805 0.000281632653 0.483194805"></polygon>
        <polygon id="path-5" points="0.000281632653 54 49.8063122 54 49.8063122 0.483194805 0.000281632653 0.483194805"></polygon>
        <polygon id="path-7" points="0.381260204 54 33.5259031 54 33.5259031 0.483194805 0.381260204 0.483194805 0.381260204 54"></polygon>
    </defs>
    <g id="Symbols" stroke="none" stroke-width="1" fill="none" fill-rule="evenodd">
        <g id="Logo">
            <g id="Page-1">
                <polygon id="Fill-1" fill="#485FAA" points="117.164494 18.6329959 114.262722 15.1201104 109.665 9 104 9.01035435 111.415949 18.6433502 114.275949 22.1562356 120.335696 30 126 29.9889554"></polygon>
                <g id="Group-30">
                    <path d="M69.041752,39.2064545 L69.0473847,42.1364805 C68.54115,41.5242468 68.0877214,41.1034675 67.687099,40.8748442 C67.2935173,40.6406104 66.8302316,40.5241948 66.2993541,40.5248961 C65.4657214,40.5262987 64.7750173,40.818039 64.2244255,41.4008182 C63.6752418,41.9835974 63.40065,42.7115455 63.4027622,43.5874675 C63.4041704,44.4823247 63.6717214,45.2165844 64.2033031,45.7909481 C64.7426296,46.3646104 65.4284051,46.6507403 66.2613337,46.6493377 C66.7929153,46.6479351 67.2611296,46.5329221 67.6673847,46.3035974 C68.0602622,46.0812857 68.5221398,45.6492857 69.0523133,45.0075974 L69.0579459,47.917987 C68.1602418,48.3829481 67.2618337,48.6171818 66.3634255,48.6185844 C64.8813337,48.6213896 63.6407418,48.1466104 62.6423541,47.1949481 C61.6432622,46.2362727 61.1426602,45.0454675 61.1398439,43.6211299 C61.1370276,42.1974935 61.6397418,40.9940649 62.6479867,40.0122468 C63.6562316,39.0304286 64.8947112,38.5381169 66.3641296,38.5353117 C67.3083031,38.5332078 68.2010786,38.7569221 69.041752,39.2064545" id="Fill-2" fill="#FFFFFF"></path>
                    <path d="M72.8516082,43.5306623 C72.8530163,44.4844286 73.1107102,45.239026 73.6232816,45.7930519 C74.1492306,46.3533896 74.8413429,46.6332078 75.7010265,46.6318052 C76.5663429,46.6304026 77.2570469,46.3505844 77.775251,45.7951558 C78.2920469,45.239026 78.5490367,44.4970519 78.5476286,43.5699351 C78.5455163,42.6414156 78.2857102,41.9008442 77.766098,41.3468182 C77.240149,40.7857792 76.5480367,40.505961 75.6897612,40.5073636 C74.8434551,40.5087662 74.1576796,40.7913896 73.6345469,41.3538312 C73.1107102,41.916974 72.8502,42.6421169 72.8516082,43.5306623 M70.5886898,43.4955974 C70.5858735,42.1175455 71.0794347,40.9442727 72.0679653,39.9757792 C73.0564959,39.0072857 74.2618837,38.5205844 75.6855367,38.5184805 C77.1155265,38.5156753 78.3293633,39.0002727 79.327751,39.9715714 C80.3141694,40.9435714 80.8077306,42.1378831 80.8105469,43.5552078 C80.8133633,44.9858571 80.319802,46.1857792 79.3319755,47.1542727 C78.3364041,48.1164545 77.1141184,48.5989481 75.6651184,48.6010519 C74.2280878,48.6038571 73.0241082,48.1157532 72.0517714,47.1388442 C71.0787306,46.1738571 70.5915061,44.9585065 70.5886898,43.4955974" id="Fill-4" fill="#FFFFFF"></path>
                    <path d="M82.9899612,38.7695455 L85.213451,38.7653377 L85.2155633,39.6468701 C85.9872367,38.8810519 86.8588898,38.4974416 87.8298184,38.4953377 C88.9443796,38.4932338 89.8139204,38.8417792 90.4384408,39.5402727 C90.9777673,40.1328701 91.2481347,41.1020649 91.250951,42.4485584 L91.2622163,48.2980909 L89.0380224,48.3022987 L89.0281653,42.9717273 C89.0267571,42.0305844 88.8936857,41.3818831 88.6310633,41.0228182 C88.3747776,40.6567403 87.9086755,40.4758052 87.2334612,40.4765065 C86.4984,40.4779091 85.9780837,40.7198571 85.6704,41.2044545 C85.3697571,41.6813377 85.2204918,42.5151818 85.2226041,43.7038831 L85.2317571,48.3093117 L83.0075633,48.3128182 L82.9899612,38.7695455 Z" id="Fill-6" fill="#FFFFFF"></path>
                    <path d="M61.0740827,8.37946753 L66.0702459,8.37035065 L66.0737663,10.3522208 C67.8100316,8.63123377 69.7680827,7.76933766 71.9500316,7.76512987 C74.4551541,7.76022078 76.4096847,8.54216883 77.8129194,10.1102727 C79.0239398,11.4441429 79.6322663,13.6230779 79.637899,16.6470779 L79.6625418,29.7936234 L74.6663786,29.8027403 L74.643848,17.8238571 C74.6403276,15.7094416 74.342501,14.2493377 73.7510724,13.4428442 C73.1751337,12.6223247 72.1274602,12.2127662 70.6094602,12.2155714 C68.9590929,12.2190779 67.7882051,12.7646883 67.097501,13.8517013 C66.4215827,14.9246883 66.0857357,16.7971558 66.0906643,19.4691039 L66.1096745,29.8188701 L61.1142153,29.827987 L61.0740827,8.37946753 Z" id="Fill-8" fill="#FFFFFF"></path>
                    <polygon id="Fill-10" fill="#FFFFFF" points="83.9085765 8.5712026 99.6300153 8.54244935 99.6694439 29.7567351 83.9480051 29.7854883 83.9409643 25.8806571 95.3639847 25.8589169 95.3548316 21.1181377 84.2641378 21.1384753 84.2570969 17.2336442 95.3477908 17.2126052 95.3386378 12.4549948 83.9156173 12.4760338"></polygon>
                    <g id="Group-14" transform="translate(126.734694, 2.103896)">
                        <mask id="mask-2" fill="white">
                            <use xlink:href="#path-1"></use>
                        </mask>
                        <g id="Clip-13"></g>
                        <polygon id="Fill-12" fill="#FFFFFF" mask="url(#mask-2)" points="7.2933 12.1270675 7.32216735 27.5893013 2.75056531 27.5977169 2.72169796 12.1354831 0.22502449 12.1403922 0.217279592 7.88982078 2.71395306 7.88561299 2.70057551 0.660132468 7.27217755 0.652418182 7.2855551 7.8764961 10.8411673 7.87088571 10.8489122 12.1200545"></polygon>
                    </g>
                    <polygon id="Fill-15" fill="#E6326A" points="124.592666 8.35618442 118.693166 8.36740519 113.980748 14.6019506 116.91536 18.1708597"></polygon>
                    <polygon id="Fill-17" fill="#E6326A" points="101.867798 29.7526675 107.746176 29.7414468 113.994196 21.7501481 111.101829 18.181239"></polygon>
                    <polygon id="Fill-19" fill="#5753A1" points="113.958921 14.6020909 111.080636 18.1815195 113.972299 21.7497273 116.894238 18.171"></polygon>
                    <g id="Group-23">
                        <mask id="mask-4" fill="white">
                            <use xlink:href="#path-3"></use>
                        </mask>
                        <g id="Clip-22"></g>
                        <polygon id="Fill-21" fill="#E6326A" mask="url(#mask-4)" points="33.2040673 0.482984416 16.6018224 27.2410364 0.000281632653 54.0004909 33.2040673 54.0004909 49.8063122 27.2410364"></polygon>
                    </g>
                    <g id="Group-26">
                        <mask id="mask-6" fill="white">
                            <use xlink:href="#path-5"></use>
                        </mask>
                        <g id="Clip-25"></g>
                        <polygon id="Fill-24" fill="#485FAA" mask="url(#mask-6)" points="33.2040673 0.482984416 0.000281632653 0.482984416 16.6018224 27.2410364 33.2040673 54.0004909 49.8063122 27.2410364"></polygon>
                    </g>
                    <g id="Group-29" transform="translate(16.193878, 0.000000)">
                        <mask id="mask-8" fill="white">
                            <use xlink:href="#path-7"></use>
                        </mask>
                        <g id="Clip-28"></g>
                        <polygon id="Fill-27" fill="#5753A1" mask="url(#mask-8)" points="16.9623827 0.482984416 0.381260204 27.2725948 16.9637908 54.0004909 33.5259031 27.2410364"></polygon>
                    </g>
                </g>
            </g>
        </g>
    </g>
</svg>