<svg id="圖層_1" data-name="圖層 1" xmlns="http://www.w3.org/2000/svg" xmlns:xlink="http://www.w3.org/1999/xlink" viewBox="0 0 179 119.33"><defs><style>.cls-1{fill:#d73465;}.cls-2{fill:#fff;}.cls-3{fill:url(#未命名漸層_21);}.cls-4{fill:#6672b5;}.cls-5{fill:url(#未命名漸層_3);}.cls-6{fill:url(#未命名漸層_21-2);}.cls-7{fill:url(#未命名漸層_19);}.cls-8{fill:none;stroke:#fff;stroke-miterlimit:10;stroke-width:7px;}</style><linearGradient id="未命名漸層_21" x1="143.5" y1="29.17" x2="170.5" y2="29.17" gradientUnits="userSpaceOnUse"><stop offset="0" stop-color="#d73465"/><stop offset="1" stop-color="#ed8f8e"/></linearGradient><linearGradient id="未命名漸層_3" x1="17.5" y1="42.67" x2="89.5" y2="42.67" gradientUnits="userSpaceOnUse"><stop offset="0" stop-color="#fff"/><stop offset="1" stop-color="#d73465"/></linearGradient><linearGradient id="未命名漸層_21-2" x1="71.5" y1="87.67" x2="116.5" y2="87.67" xlink:href="#未命名漸層_21"/><linearGradient id="未命名漸層_19" x1="17.5" y1="87.67" x2="71.5" y2="87.67" gradientUnits="userSpaceOnUse"><stop offset="0" stop-color="#d73465"/><stop offset="1" stop-color="#1c2e6d"/></linearGradient></defs><title>_</title><rect class="cls-1" x="8.5" y="6.67" width="90" height="72"/><rect class="cls-1" x="107.5" y="42.67" width="63" height="27"/><rect class="cls-1" x="44.5" y="69.67" width="18" height="18"/><rect class="cls-1" x="17.5" y="87.67" width="72" height="9"/><path class="cls-2" d="M134.5,15.67s-27,0-27,27h27Z"/><circle class="cls-3" cx="157" cy="29.17" r="13.5"/><polygon class="cls-4" points="170.5 69.67 143.5 96.67 170.5 96.67 170.5 69.67"/><rect class="cls-5" x="17.5" y="15.67" width="72" height="54"/><rect class="cls-6" x="71.5" y="60.67" width="45" height="54"/><rect class="cls-1" x="107.5" y="105.67" width="18" height="9"/><polygon class="cls-7" points="71.5 60.67 17.5 114.67 71.5 114.67 71.5 60.67"/><rect class="cls-2" x="114.64" y="89.53" width="9" height="9" transform="translate(101.38 -56.7) rotate(45)"/><path class="cls-8" d="M62.5,87.67a27,27,0,0,0,0-54"/><line class="cls-8" x1="152.5" y1="78.67" x2="152.5" y2="114.67"/></svg>