<svg id="圖層_1" data-name="圖層 1" xmlns="http://www.w3.org/2000/svg" xmlns:xlink="http://www.w3.org/1999/xlink" viewBox="0 0 179 119.33"><defs><style>.cls-1{fill:#545097;}.cls-2{fill:#fff;}.cls-3{fill:url(#未命名漸層_21);}.cls-4{fill:url(#未命名漸層_44);}.cls-5{fill:url(#未命名漸層_44-2);}.cls-6{fill:url(#未命名漸層_21-2);}.cls-7{fill:#d73465;}.cls-8{fill:url(#未命名漸層_19);}.cls-9{fill:url(#未命名漸層_21-3);}.cls-10{fill:none;stroke:#fff;stroke-miterlimit:10;stroke-width:5.16px;}</style><linearGradient id="未命名漸層_21" x1="50.5" y1="99.17" x2="50.5" y2="32.08" gradientUnits="userSpaceOnUse"><stop offset="0" stop-color="#d73465"/><stop offset="1" stop-color="#ed8f8e"/></linearGradient><linearGradient id="未命名漸層_44" x1="7.95" y1="75.5" x2="39.86" y2="75.5" gradientUnits="userSpaceOnUse"><stop offset="0" stop-color="#455ba0"/><stop offset="1" stop-color="#1c2e6d"/></linearGradient><linearGradient id="未命名漸層_44-2" x1="82.41" y1="74.62" x2="167.5" y2="74.62" xlink:href="#未命名漸層_44"/><linearGradient id="未命名漸層_21-2" x1="113.5" y1="90.17" x2="167.5" y2="90.17" xlink:href="#未命名漸層_21"/><linearGradient id="未命名漸層_19" x1="111.86" y1="45.58" x2="167.09" y2="45.58" gradientUnits="userSpaceOnUse"><stop offset="0" stop-color="#d73465"/><stop offset="1" stop-color="#1c2e6d"/></linearGradient><linearGradient id="未命名漸層_21-3" x1="88.95" y1="52.53" x2="111.86" y2="52.53" xlink:href="#未命名漸層_21"/></defs><title>_</title><rect class="cls-1" x="7.95" y="99.17" width="108" height="18"/><polygon class="cls-2" points="50.5 0.17 39.86 32.08 61.14 32.08 50.5 0.17"/><rect class="cls-3" x="39.86" y="32.08" width="21.27" height="67.09"/><polygon class="cls-4" points="39.86 51.83 7.96 99.17 39.86 99.17 39.86 51.83"/><rect class="cls-5" x="82.41" y="63.98" width="85.09" height="21.27"/><path class="cls-6" d="M167.5,63.17s-54,0-54,54h54Z"/><polygon class="cls-7" points="60.87 42.95 88.95 117.17 60.87 117.17 60.87 42.95"/><rect class="cls-8" x="111.86" y="27.17" width="55.23" height="36.82"/><path class="cls-9" d="M111.86,41.08S89,41.08,89,64h22.91Z"/><polygon class="cls-2" points="103.68 74.62 114.32 85.26 103.68 95.89 103.68 74.62"/><polygon class="cls-2" points="139.14 49.8 171.04 81.71 139.14 113.62 139.14 49.8"/><rect class="cls-2" x="150.32" y="13.76" width="8.81" height="8.81" transform="translate(58.16 -104.08) rotate(45)"/><polyline class="cls-10" points="79.95 58.42 93.21 45.17 106.47 58.42 119.73 45.17"/><circle class="cls-2" cx="90.59" cy="106.53" r="10.64"/></svg>