<svg id="圖層_1" data-name="圖層 1" xmlns="http://www.w3.org/2000/svg" xmlns:xlink="http://www.w3.org/1999/xlink" viewBox="0 0 179 119.33"><defs><style>.cls-1{fill:url(#未命名漸層_19);}.cls-2{fill:url(#未命名漸層_21);}.cls-3{fill:url(#未命名漸層_44);}.cls-4{fill:#d73465;}.cls-5{fill:#fff;}.cls-6{fill:url(#未命名漸層_21-2);}.cls-7{fill:#6672b5;}.cls-8{fill:none;stroke:#fff;stroke-miterlimit:10;stroke-width:7px;}</style><linearGradient id="未命名漸層_19" x1="121.66" y1="96.1" x2="121.66" y2="15.1" gradientUnits="userSpaceOnUse"><stop offset="0" stop-color="#d73465"/><stop offset="1" stop-color="#1c2e6d"/></linearGradient><linearGradient id="未命名漸層_21" x1="80.03" y1="94.42" x2="110.41" y2="94.42" gradientUnits="userSpaceOnUse"><stop offset="0" stop-color="#d73465"/><stop offset="1" stop-color="#ed8f8e"/></linearGradient><linearGradient id="未命名漸層_44" x1="738.27" y1="845.09" x2="796.77" y2="845.09" gradientTransform="translate(883.5 -696.17) rotate(90)" gradientUnits="userSpaceOnUse"><stop offset="0" stop-color="#455ba0"/><stop offset="1" stop-color="#1c2e6d"/></linearGradient><linearGradient id="未命名漸層_21-2" x1="53.03" y1="74.17" x2="135.16" y2="74.17" xlink:href="#未命名漸層_21"/></defs><title>_</title><rect class="cls-1" x="72.16" y="15.1" width="99" height="81"/><rect class="cls-2" x="80.03" y="89.35" width="30.38" height="10.13"/><polygon class="cls-3" points="67.66 100.6 9.16 42.1 9.16 100.6 67.66 100.6"/><path class="cls-4" d="M29.41,21.85S9.16,21.85,9.16,42.1H29.41Z"/><polygon class="cls-5" points="99.16 24.1 90.16 33.1 99.16 33.1 99.16 42.1 153.16 42.1 153.16 6.1 99.16 6.1 99.16 24.1"/><rect class="cls-5" x="5.94" y="101.88" width="10.12" height="10.12" transform="translate(78.84 23.55) rotate(45)"/><polygon class="cls-5" points="39.53 28.6 49.66 69.1 29.41 38.73 39.53 28.6"/><polygon class="cls-5" points="74.97 53.3 69.91 72.48 80.03 58.09 74.97 53.3"/><circle class="cls-5" cx="63.16" cy="98.35" r="10.13"/><polygon class="cls-6" points="135.16 33.1 53.03 115.23 135.16 115.23 135.16 33.1"/><rect class="cls-4" x="30.53" y="97.23" width="18" height="18"/><rect class="cls-7" x="135.16" y="78.1" width="27" height="36"/><line class="cls-8" x1="117.16" y1="114.1" x2="153.16" y2="78.1"/></svg>